<!-- <svg width="664" height="720" viewBox="0 0 664 720" fill="none" xmlns="http://www.w3.org/2000/svg">
  <path d="M317.3 19.224C364.521 34.6357 372.043 104.958 414.809 130.225C449.101 150.485 508.442 114.222 532.2 146.19C558.773 181.944 503.609 239.427 525.006 278.499C547.653 319.849 629.379 306.996 644.688 351.587C657.969 390.272 604.08 421.524 586.842 458.615C571.91 490.745 566.989 526.407 549.202 557.048C530.419 589.405 512.504 626.294 479.393 643.713C446.109 661.222 404.663 644.657 367.868 652.44C330.178 660.412 297.894 685.348 259.675 690.189C216.761 695.625 160.462 714.313 131.244 682.415C97.3026 645.358 125.227 583.147 116.331 533.689C110.914 503.575 102.878 474.124 88.8839 446.914C71.5841 413.276 33.7381 391.408 24.3157 354.775C14.8136 317.832 9.31079 269.028 36.1607 241.933C67.1433 210.668 135.675 247.46 164.025 213.79C198.418 172.942 158.52 99.3092 191.564 57.3629C218.9 22.6632 275.307 5.51825 317.3 19.224Z" fill="black""")/>>
</svg> -->

<svg width="664" height="720" viewBox="0 0 664 720" fill="none" xmlns="http://www.w3.org">
  <path d="M317.3 19.224C364.521 34.6357 372.043 104.958 414.809 130.225C449.101 150.485 508.442 114.222 532.2 146.19C558.773 181.944 503.609 239.427 525.006 278.499C547.653 319.849 629.379 306.996 644.688 351.587C657.969 390.272 604.08 421.524 586.842 458.615C571.91 490.745 566.989 526.407 549.202 557.048C530.419 589.405 512.504 626.294 479.393 643.713C446.109 661.222 404.663 644.657 367.868 652.44C330.178 660.412 297.894 685.348 259.675 690.189C216.761 695.625 160.462 714.313 131.244 682.415C97.3026 645.358 125.227 583.147 116.331 533.689C110.914 503.575 102.878 474.124 88.8839 446.914C71.5841 413.276 33.7381 391.408 24.3157 354.775C14.8136 317.832 9.31079 269.028 36.1607 241.933C67.1433 210.668 135.675 247.46 164.025 213.79C198.418 172.942 158.52 99.3092 191.564 57.3629C218.9 22.6632 275.307 5.51825 317.3 19.224Z" fill="white" />
</svg>


