<svg width="16" height="8" viewBox="0 0 16 8" fill="none" xmlns="http://www.w3.org/2000/svg">
<g clip-path="url(#clip0_1_35)">
<path d="M1.66666 2.33335H2.33333V5.66669H1.66666V2.33335ZM0.333328 3.33335H0.999995V4.66669H0.333328V3.33335ZM2.99999 0.666687H3.66666V6.66669H2.99999V0.666687ZM4.33333 1.33335H4.99999V7.33335H4.33333V1.33335ZM5.66666 2.33335H6.33333V5.66669H5.66666V2.33335ZM6.99999 3.33335H7.66666V4.66669H6.99999V3.33335Z" fill="#E4F5FF"/>
</g>
<g clip-path="url(#clip1_1_35)">
<path d="M5.66666 2.33335H6.33333V5.66669H5.66666V2.33335ZM4.33333 3.33335H4.99999V4.66669H4.33333V3.33335ZM6.99999 0.666687H7.66666V6.66669H6.99999V0.666687ZM8.33333 1.33335H8.99999V7.33335H8.33333V1.33335ZM9.66666 2.33335H10.3333V5.66669H9.66666V2.33335ZM11 3.33335H11.6667V4.66669H11V3.33335Z" fill="#E4F5FF"/>
</g>
<g clip-path="url(#clip2_1_35)">
<path d="M9.66666 2.33335H10.3333V5.66669H9.66666V2.33335ZM8.33333 3.33335H8.99999V4.66669H8.33333V3.33335ZM11 0.666687H11.6667V6.66669H11V0.666687ZM12.3333 1.33335H13V7.33335H12.3333V1.33335ZM13.6667 2.33335H14.3333V5.66669H13.6667V2.33335ZM15 3.33335H15.6667V4.66669H15V3.33335Z" fill="#E4F5FF"/>
</g>
<defs>
<clipPath id="clip0_1_35">
<rect width="8" height="8" fill="white"/>
</clipPath>
<clipPath id="clip1_1_35">
<rect width="8" height="8" fill="white" transform="translate(4)"/>
</clipPath>
<clipPath id="clip2_1_35">
<rect width="8" height="8" fill="white" transform="translate(8)"/>
</clipPath>
</defs>
</svg>
