<svg width="72" height="24" viewBox="0 0 72 24" fill="none" xmlns="http://www.w3.org/2000/svg">
<path d="M5 7H7V17H5V7ZM1 10H3V14H1V10ZM9 2H11V20H9V2ZM13 4H15V22H13V4ZM17 7H19V17H17V7ZM21 10H23V14H21V10Z" fill="#E4F5FF"/>
<path d="M17 7H19V17H17V7ZM13 10H15V14H13V10ZM21 2H23V20H21V2ZM25 4H27V22H25V4ZM29 7H31V17H29V7ZM33 10H35V14H33V10Z" fill="#E4F5FF"/>
<path d="M29 7H31V17H29V7ZM25 10H27V14H25V10ZM33 2H35V20H33V2ZM37 4H39V22H37V4ZM41 7H43V17H41V7ZM45 10H47V14H45V10Z" fill="#E4F5FF"/>
<path d="M41 7H43V17H41V7ZM37 10H39V14H37V10ZM45 2H47V20H45V2ZM49 4H51V22H49V4ZM53 7H55V17H53V7ZM57 10H59V14H57V10Z" fill="#E4F5FF"/>
<path d="M53 7H55V17H53V7ZM49 10H51V14H49V10ZM57 2H59V20H57V2ZM61 4H63V22H61V4ZM65 7H67V17H65V7ZM69 10H71V14H69V10Z" fill="#E4F5FF"/>
</svg>
